# This file uses centimeters as units for non-parametric coordinates.

mtllib book1.mtl
g default
v -0.101594 -0.201229 0.049880
v 0.101594 -0.201229 0.049880
v -0.101594 0.201228 0.049880
v 0.101594 0.201228 0.049880
v -0.101594 0.201228 -0.049880
v 0.101594 0.201228 -0.049880
v -0.101594 -0.201229 -0.049880
v 0.101594 -0.201229 -0.049880
v -0.093488 0.193971 0.045900
v 0.093488 0.193971 0.045900
v 0.093488 0.193971 -0.045900
v -0.093488 0.193971 -0.045900
vt 0.021881 0.893908
vt 0.021881 0.478548
vt 0.437241 0.478548
vt 0.437241 0.893908
vt 0.506634 0.046316
vt 0.871255 0.046316
vt 0.871255 0.410938
vt 0.506634 0.410938
vt 0.490826 0.030509
vt 0.887062 0.030509
vt 0.887062 0.426745
vt 0.490826 0.426745
vt 0.019523 0.437901
vt 0.019523 0.019353
vt 0.438070 0.019353
vt 0.438070 0.437901
vt 0.494025 0.889126
vt 0.494025 0.483329
vt 0.899822 0.483329
vt 0.899822 0.889126
vn 0.000000 0.000000 1.000000
vn 0.000000 0.000000 1.000000
vn 0.000000 0.000000 1.000000
vn 0.000000 0.000000 1.000000
vn 0.000000 1.000000 0.000000
vn 0.000000 1.000000 0.000000
vn 0.000000 1.000000 0.000000
vn 0.000000 1.000000 0.000000
vn 0.000000 0.000000 -1.000000
vn 0.000000 0.000000 -1.000000
vn 0.000000 0.000000 -1.000000
vn 0.000000 0.000000 -1.000000
vn 1.000000 0.000000 0.000000
vn 1.000000 0.000000 0.000000
vn 1.000000 0.000000 0.000000
vn 1.000000 0.000000 0.000000
vn 0.000000 0.480814 -0.876823
vn 0.000000 0.480814 -0.876823
vn 0.000000 0.480814 -0.876823
vn 0.000000 0.480814 -0.876823
vn -0.667050 0.745013 0.000000
vn -0.667050 0.745013 0.000000
vn -0.667050 0.745013 0.000000
vn -0.667050 0.745013 0.000000
vn 0.000000 0.480814 0.876823
vn 0.000000 0.480814 0.876823
vn 0.000000 0.480814 0.876823
vn 0.000000 0.480814 0.876823
s off
g pCube136
usemtl initialShadingGroup
f 1/13/1 2/14/2 4/15/3 3/16/4
f 9/5/5 10/6/6 11/7/7 12/8/8
f 5/17/9 6/18/10 8/19/11 7/20/12
f 2/1/13 8/2/14 6/3/15 4/4/16
f 3/9/17 4/10/18 10/6/19 9/5/20
f 4/10/21 6/11/22 11/7/23 10/6/24
f 6/11/25 5/12/26 12/8/27 11/7/28
