# This file uses centimeters as units for non-parametric coordinates.

mtllib Biblioteca.mtl
g default
v -0.285658 -1.356799 0.953968
v 0.285658 -1.356799 0.953968
v -0.285658 1.356799 0.953968
v 0.285658 1.356799 0.953968
v -0.285658 1.356799 -0.953968
v 0.285658 1.356799 -0.953968
v -0.285658 -1.356799 -0.953968
v 0.285658 -1.356799 -0.953968
v 0.285658 -1.288953 -0.886121
v 0.285658 -1.288953 0.886121
v 0.285658 1.288953 -0.886121
v 0.285658 1.288953 0.886121
v -0.152528 -1.288953 -0.886121
v -0.152528 -1.288953 0.886121
v -0.152528 1.288953 -0.886121
v -0.152528 1.288953 0.886121
v -0.285658 0.671531 0.953968
v 0.285658 0.671531 0.953968
v 0.285658 0.637952 0.886121
v -0.152528 0.637952 0.886121
v -0.152528 0.637952 -0.886121
v 0.285658 0.637952 -0.886122
v 0.285658 0.671531 -0.953968
v -0.285658 0.671531 -0.953968
v -0.285658 0.614588 0.953968
v 0.285658 0.614588 0.953968
v 0.285658 0.583856 0.886121
v -0.152528 0.583856 0.886121
v -0.152528 0.583855 -0.891988
v 0.285658 0.583855 -0.886121
v 0.285658 0.614588 -0.953968
v -0.285658 0.614588 -0.953968
v -0.285658 -0.002772 0.953968
v 0.285658 -0.002772 0.953968
v 0.285658 -0.002633 0.886121
v -0.152528 -0.002633 0.886121
v -0.152528 -0.002633 -0.886121
v 0.285658 -0.002633 -0.886121
v 0.285658 -0.002772 -0.953968
v -0.285658 -0.002772 -0.953968
v -0.285658 -0.053944 0.953968
v 0.285658 -0.053944 0.953968
v 0.285658 -0.051247 0.886121
v -0.152528 -0.051247 0.886121
v -0.152528 -0.051248 -0.886121
v 0.285658 -0.051248 -0.886121
v 0.285658 -0.053945 -0.953968
v -0.285658 -0.053945 -0.953968
v -0.285658 -0.807922 0.953968
v 0.285658 -0.807922 0.953968
v 0.285658 -0.767522 0.886121
v -0.152528 -0.767522 0.867953
v -0.152528 -0.803669 -0.886122
v 0.285658 -0.767522 -0.886121
v 0.285658 -0.807922 -0.953968
v -0.285658 -0.807922 -0.953968
v -0.285658 -0.845971 0.953968
v 0.285658 -0.845971 0.953968
v 0.285658 -0.803668 0.886121
v -0.152528 -0.803668 0.886121
v 0.285658 -0.803669 -0.886121
v 0.285658 -0.845971 -0.953968
v -0.285658 -0.845971 -0.953968
vt 0.221572 0.455804
vt 0.221572 0.239105
vt 0.277539 0.239105
vt 0.277539 0.455804
vt 0.525293 0.239105
vt 0.758583 0.239105
vt 0.750287 0.244938
vt 0.533589 0.244938
vt 0.758583 0.283022
vt 0.750287 0.286658
vt 0.533589 0.286658
vt 0.525293 0.283022
vt 0.758583 0.286293
vt 0.750287 0.289766
vt 0.533589 0.289766
vt 0.525293 0.286293
vt 0.758583 0.351113
vt 0.750287 0.351344
vt 0.533589 0.351345
vt 0.525293 0.351113
vt 0.758583 0.355512
vt 0.750287 0.355524
vt 0.533589 0.355524
vt 0.525293 0.355512
vt 0.758583 0.408587
vt 0.750287 0.405945
vt 0.533589 0.405945
vt 0.525293 0.408587
vt 0.758583 0.413482
vt 0.750287 0.410595
vt 0.533589 0.410595
vt 0.525293 0.413482
vt 0.758583 0.472395
vt 0.750287 0.466562
vt 0.525293 0.472395
vt 0.533589 0.466562
vt 0.187337 0.676493
vt 0.187337 0.459795
vt 0.191988 0.459795
vt 0.191988 0.676493
vt 0.468737 0.456521
vt 0.468737 0.239823
vt 0.519158 0.239105
vt 0.519158 0.456521
vt 0.199031 0.676493
vt 0.199031 0.459795
vt 0.203210 0.459795
vt 0.203210 0.676493
vt 0.213832 0.674272
vt 0.210725 0.459795
vt 0.275411 0.459795
vt 0.275411 0.676493
vt 0.282836 0.677210
vt 0.282836 0.460512
vt 0.285944 0.460512
vt 0.285944 0.677210
vt 0.292581 0.677210
vt 0.292581 0.460512
vt 0.334301 0.460512
vt 0.334301 0.677210
vt 0.241908 0.235114
vt 0.241908 0.001824
vt 0.475198 0.001824
vt 0.475198 0.235114
vt 0.215436 0.239105
vt 0.215436 0.455804
vt 0.036508 0.455804
vt 0.036508 0.239105
vt 0.341305 0.677210
vt 0.341305 0.460512
vt 0.520232 0.460512
vt 0.520232 0.677210
vt 0.711606 0.693085
vt 0.711606 0.476387
vt 0.890534 0.476387
vt 0.890534 0.693085
vt 0.634017 0.913774
vt 0.634017 0.699298
vt 0.812945 0.697076
vt 0.812945 0.913774
vt 0.001992 0.176201
vt 0.235282 0.176201
vt 0.235282 0.235114
vt 0.001992 0.235114
vt 0.001992 0.171305
vt 0.235282 0.171305
vt 0.001992 0.118231
vt 0.235282 0.118231
vt 0.001992 0.113831
vt 0.235282 0.113831
vt 0.001992 0.049011
vt 0.235282 0.049011
vt 0.001992 0.045740
vt 0.235282 0.045740
vt 0.001992 0.001824
vt 0.235282 0.001824
vt 0.481629 0.235114
vt 0.481629 0.001824
vt 0.540542 0.001824
vt 0.540542 0.235114
vt 0.545438 0.001824
vt 0.545438 0.235114
vt 0.598512 0.001824
vt 0.598512 0.235114
vt 0.602912 0.001824
vt 0.602912 0.235114
vt 0.667732 0.001824
vt 0.667732 0.235114
vt 0.671003 0.001824
vt 0.671003 0.235114
vt 0.714919 0.001824
vt 0.714919 0.235114
vt 0.571915 0.876004
vt 0.571915 0.697076
vt 0.627882 0.697076
vt 0.627882 0.876004
vt 0.509812 0.697076
vt 0.565779 0.697076
vt 0.565779 0.876004
vt 0.509812 0.876004
vt 0.431684 0.860130
vt 0.431684 0.681202
vt 0.482105 0.681202
vt 0.482105 0.860130
vt 0.375128 0.860130
vt 0.375128 0.681202
vt 0.425549 0.681202
vt 0.425549 0.860130
vt 0.286785 0.860130
vt 0.286785 0.681202
vt 0.348363 0.681202
vt 0.348363 0.860130
vt 0.215963 0.860130
vt 0.219071 0.681202
vt 0.280649 0.681202
vt 0.280649 0.860130
vt 0.149622 0.859413
vt 0.149622 0.680485
vt 0.191342 0.680485
vt 0.191342 0.859413
vt 0.101766 0.680485
vt 0.143487 0.680485
vt 0.143487 0.859413
vt 0.101766 0.859413
vn 0.000000 0.000000 1.000000
vn 0.000000 0.000000 1.000000
vn 0.000000 0.000000 1.000000
vn 0.000000 0.000000 1.000000
vn 0.000000 1.000000 0.000000
vn 0.000000 1.000000 0.000000
vn 0.000000 1.000000 0.000000
vn 0.000000 1.000000 0.000000
vn 0.000000 0.000000 -1.000000
vn 0.000000 0.000000 -1.000000
vn 0.000000 0.000000 -1.000000
vn 0.000000 0.000000 -1.000000
vn 1.000000 0.000000 0.000000
vn 1.000000 0.000000 0.000000
vn 1.000000 0.000000 0.000000
vn 1.000000 0.000000 0.000000
vn 1.000000 -0.000000 0.000000
vn 1.000000 -0.000000 0.000000
vn 1.000000 -0.000000 0.000000
vn 1.000000 -0.000000 0.000000
vn 1.000000 -0.000000 0.000000
vn 1.000000 -0.000000 0.000000
vn 1.000000 -0.000000 0.000000
vn 1.000000 -0.000000 0.000000
vn 1.000000 -0.000000 0.000000
vn 1.000000 -0.000000 0.000000
vn 1.000000 0.000000 0.000000
vn 1.000000 0.000000 0.000000
vn 0.000000 1.000000 0.000000
vn 0.000000 1.000000 0.000000
vn 0.000000 1.000000 0.000000
vn 0.000000 1.000000 0.000000
vn 0.000000 -0.000000 1.000000
vn 0.000000 -0.000000 1.000000
vn 0.000000 -0.000000 1.000000
vn 0.000000 -0.000000 1.000000
vn 0.000000 0.000000 -1.000000
vn 0.000000 0.000000 -1.000000
vn 0.000000 0.000000 -1.000000
vn 0.000000 0.000000 -1.000000
vn 0.000000 0.000000 1.000000
vn 0.000000 0.000000 1.000000
vn 1.000000 0.000000 0.000000
vn 1.000000 0.000000 0.000000
vn 1.000000 0.000000 0.000000
vn 1.000000 0.000000 0.000000
vn 1.000000 0.000001 -0.000000
vn 1.000000 0.000001 -0.000000
vn 1.000000 0.000001 -0.000000
vn 1.000000 0.000001 -0.000000
vn 1.000000 0.000001 0.000000
vn 1.000000 0.000001 0.000000
vn 1.000000 0.000001 0.000000
vn 1.000000 0.000001 0.000000
vn 0.000000 0.000000 -1.000000
vn 0.000000 0.000000 -1.000000
vn 0.000000 0.000000 1.000000
vn 0.000000 0.000000 1.000000
vn 1.000000 0.000000 0.000000
vn 1.000000 0.000000 0.000000
vn 1.000000 0.000000 0.000000
vn 1.000000 0.000000 0.000000
vn 0.000000 0.000000 -1.000000
vn 0.000000 0.000000 -1.000000
vn 0.000000 0.000000 -1.000000
vn 0.000000 0.000000 -1.000000
vn 1.000000 0.000000 -0.000000
vn 1.000000 0.000000 -0.000000
vn 1.000000 0.000000 -0.000000
vn 1.000000 0.000000 -0.000000
vn -0.006694 0.005001 0.999965
vn -0.006694 0.005001 0.999965
vn -0.006694 0.005001 0.999965
vn -0.006694 0.005001 0.999965
vn 1.000000 0.000000 0.000000
vn 1.000000 0.000000 0.000000
vn 1.000000 0.000000 0.000000
vn 1.000000 0.000000 0.000000
vn 0.000000 0.000000 -1.000000
vn 0.000000 0.000000 -1.000000
vn 0.000000 0.000000 1.000000
vn 0.000000 0.000000 1.000000
vn 1.000000 0.000000 0.000000
vn 1.000000 0.000000 0.000000
vn 1.000000 0.000000 0.000000
vn 1.000000 0.000000 0.000000
vn 1.000000 0.000000 0.000000
vn 1.000000 0.000000 0.000000
vn 1.000000 0.000000 0.000000
vn 1.000000 0.000000 0.000000
vn 1.000000 -0.000000 0.000000
vn 1.000000 -0.000000 0.000000
vn 1.000000 -0.000000 0.000000
vn 1.000000 -0.000000 0.000000
vn 0.000000 0.000000 -1.000000
vn 0.000000 0.000000 -1.000000
vn 0.000000 0.000000 1.000000
vn 0.000000 0.000000 1.000000
vn 1.000000 0.000000 0.000000
vn 1.000000 0.000000 0.000000
vn 1.000000 0.000000 0.000000
vn 1.000000 0.000000 0.000000
vn 0.020725 0.012679 -0.999705
vn 0.020725 0.012679 -0.999705
vn 0.020725 0.012679 -0.999705
vn 0.020725 0.012679 -0.999705
vn 1.000000 0.000000 -0.000000
vn 1.000000 0.000000 -0.000000
vn 1.000000 0.000000 -0.000000
vn 1.000000 0.000000 -0.000000
vn -0.000000 -0.000000 1.000000
vn -0.000000 -0.000000 1.000000
vn -0.000000 -0.000000 1.000000
vn -0.000000 -0.000000 1.000000
vn 1.000000 0.000000 0.000000
vn 1.000000 0.000000 0.000000
vn 1.000000 0.000000 0.000000
vn 1.000000 0.000000 0.000000
vn 0.000000 0.000000 -1.000000
vn 0.000000 0.000000 -1.000000
vn 0.000000 0.000000 1.000000
vn 0.000000 0.000000 1.000000
vn 1.000000 0.000000 0.000000
vn 1.000000 0.000000 0.000000
vn 1.000000 0.000000 0.000000
vn 1.000000 0.000000 0.000000
vn 1.000000 0.000001 0.000000
vn 1.000000 0.000001 0.000000
vn 1.000000 0.000001 0.000000
vn 1.000000 0.000001 0.000000
vn 1.000000 -0.000000 0.000000
vn 1.000000 -0.000000 0.000000
vn 1.000000 -0.000000 0.000000
vn 1.000000 -0.000000 0.000000
vn 0.000000 0.000000 -1.000000
vn 0.000000 0.000000 -1.000000
vn 0.000000 0.000000 1.000000
vn 0.000000 0.000000 1.000000
vn 1.000000 -0.000000 0.000000
vn 1.000000 -0.000000 0.000000
vn 0.000000 -0.000000 -1.000000
vn 0.000000 -0.000000 -1.000000
vn 0.000000 -0.000000 -1.000000
vn 0.000000 -0.000000 -1.000000
vn 1.000000 -0.000000 0.000000
vn 1.000000 -0.000000 0.000000
vn 1.000000 -0.000000 0.000000
vn 1.000000 -0.000000 0.000000
vn 0.000000 0.000000 1.000000
vn 0.000000 0.000000 1.000000
vn 0.000000 0.000000 1.000000
vn 0.000000 0.000000 1.000000
vn 1.000000 0.000000 0.000000
vn 1.000000 0.000000 0.000000
vn 0.000000 0.000000 -1.000000
vn 0.000000 0.000000 -1.000000
vn 0.000000 1.000000 0.000000
vn 0.000000 1.000000 0.000000
vn 0.000000 1.000000 0.000000
vn 0.000000 1.000000 0.000000
vn 0.000000 1.000000 -0.000000
vn 0.000000 1.000000 -0.000000
vn 0.000000 1.000000 -0.000000
vn 0.000000 1.000000 -0.000000
vn -0.040996 0.999107 -0.010241
vn -0.040996 0.999107 -0.010241
vn -0.040996 0.999107 -0.010241
vn -0.040996 0.999107 -0.010241
s 1
g pCube101
usemtl initialShadingGroup
f 17/81/1 18/82/2 4/83/3 3/84/4
s off
f 3/61/5 4/62/6 6/63/7 5/64/8
s 2
f 5/97/9 6/98/10 23/99/11 24/100/12
s off
f 20/1/13 21/2/14 15/3/15 16/4/16
s 3
f 2/5/17 8/6/18 9/7/19 10/8/20
s 4
f 22/30/21 23/29/22 6/33/23 11/34/24
f 6/33/23 4/35/25 12/36/26 11/34/24
f 4/35/25 18/32/27 19/31/28 12/36/26
s off
f 10/65/29 9/66/30 13/67/31 14/68/32
f 21/113/33 22/114/34 11/115/35 15/116/36
f 12/117/37 19/118/38 20/119/39 16/120/40
s 1
f 25/85/41 26/86/42 18/82/2 17/81/1
s off
f 19/31/43 18/32/44 26/28/45 27/27/46
f 27/37/47 30/38/48 22/39/49 19/40/50
f 30/26/51 31/25/52 23/29/53 22/30/54
s 2
f 24/100/12 23/99/11 31/101/55 32/102/56
s 1
f 33/87/57 34/88/58 26/86/42 25/85/41
s off
f 27/27/59 26/28/60 34/24/61 35/23/62
f 28/121/63 27/122/64 35/123/65 36/124/66
f 36/41/67 37/42/68 29/43/69 28/44/70
f 37/125/71 38/126/72 30/127/73 29/128/74
f 38/22/75 39/21/76 31/25/77 30/26/78
s 2
f 32/102/56 31/101/55 39/103/79 40/104/80
s 1
f 41/89/81 42/90/82 34/88/58 33/87/57
s off
f 35/23/83 34/24/84 42/20/85 43/19/86
f 43/45/87 46/46/88 38/47/89 35/48/90
f 46/18/91 47/17/92 39/21/93 38/22/94
s 2
f 40/104/80 39/103/79 47/105/95 48/106/96
s 1
f 49/91/97 50/92/98 42/90/82 41/89/81
s off
f 43/19/99 42/20/100 50/16/101 51/15/102
f 44/129/103 43/130/104 51/131/105 52/132/106
f 52/49/107 53/50/108 45/51/109 44/52/110
f 53/133/111 54/134/112 46/135/113 45/136/114
f 54/14/115 55/13/116 47/17/117 46/18/118
s 2
f 48/106/96 47/105/95 55/107/119 56/108/120
s 1
f 57/93/121 58/94/122 50/92/98 49/91/97
s off
f 51/15/123 50/16/124 58/12/125 59/11/126
f 59/53/127 61/54/128 54/55/129 51/56/130
f 61/10/131 62/9/132 55/13/133 54/14/134
s 2
f 56/108/120 55/107/119 62/109/135 63/110/136
s 1
f 1/95/137 2/96/138 58/94/122 57/93/121
s 3
f 59/11/139 58/12/140 2/5/17 10/8/20
s off
f 60/137/141 59/138/142 10/139/143 14/140/144
f 14/57/145 13/58/146 53/59/147 60/60/148
f 9/141/149 61/142/150 53/143/151 13/144/152
s 3
f 8/6/18 62/9/153 61/10/154 9/7/19
s 2
f 63/110/136 62/109/135 8/111/155 7/112/156
s off
f 21/69/157 20/70/158 19/71/159 22/72/160
f 37/73/161 36/74/162 35/75/163 38/76/164
f 53/77/165 52/78/166 51/79/167 54/80/168
