# This file uses centimeters as units for non-parametric coordinates.

mtllib paper.mtl
g default
v -0.208443 0.017288 0.082875
v 0.082875 -0.000000 0.208443
v -0.181775 0.000000 0.021005
v 0.109543 0.000000 0.146574
v -0.150987 0.000000 -0.050425
v 0.140332 0.000000 0.075144
v -0.122728 0.000000 -0.115985
v 0.168591 0.000000 0.009583
v -0.082875 0.000000 -0.208443
v 0.208443 0.010652 -0.082875
vt 0.001992 0.001992
vt 0.998008 0.001992
vt 0.998008 0.213524
vt 0.001992 0.213524
vt 0.998008 0.457743
vt 0.001992 0.457743
vt 0.998008 0.681894
vt 0.001992 0.681894
vt 0.998008 0.998008
vt 0.001992 0.998008
vn 0.075166 0.991507 -0.106129
vn 0.075166 0.991507 -0.106129
vn 0.035121 0.998152 -0.049589
vn 0.035121 0.998152 -0.049589
vn 0.000000 1.000000 0.000000
vn 0.000000 1.000000 0.000000
vn -0.021262 0.999473 0.024523
vn -0.021262 0.999473 0.024523
vn -0.036302 0.998463 0.041870
vn -0.036302 0.998463 0.041870
s 1
g pPlane15
usemtl initialShadingGroup
f 1/1/1 2/2/2 4/3/3 3/4/4
f 3/4/4 4/3/3 6/5/5 5/6/6
f 5/6/6 6/5/5 8/7/7 7/8/8
f 7/8/8 8/7/7 10/9/9 9/10/10
