# This file uses centimeters as units for non-parametric coordinates.

mtllib shelf.mtl
g default
v 0.635622 -0.168858 -0.161513
v 0.721574 -0.168858 -0.161513
v 0.635622 -0.125323 -0.204629
v 0.721574 -0.125323 -0.204629
v 0.635622 -0.168858 0.124507
v 0.721574 -0.168858 0.124507
v 0.635622 -0.125323 0.124507
v 0.721574 -0.125323 0.124507
v 0.635622 -0.302962 -0.204752
v 0.635622 -0.325841 -0.161438
v 0.721574 -0.325841 -0.161438
v 0.721574 -0.302962 -0.204752
v -0.729569 -0.168858 -0.161513
v -0.643617 -0.168858 -0.161513
v -0.729569 -0.125323 -0.204629
v -0.643617 -0.125323 -0.204629
v -0.729569 -0.168858 0.124507
v -0.643617 -0.168858 0.124507
v -0.729569 -0.125323 0.124507
v -0.643617 -0.125323 0.124507
v -0.729569 -0.302962 -0.204752
v -0.729569 -0.325841 -0.161438
v -0.643617 -0.325841 -0.161438
v -0.643617 -0.302962 -0.204752
v -0.868962 -0.127104 0.204958
v 0.868962 -0.127104 0.204958
v -0.868962 -0.030270 0.204958
v 0.868962 -0.030270 0.204958
v -0.868962 -0.030270 -0.204958
v 0.868962 -0.030270 -0.204958
v -0.868962 -0.127104 -0.204958
v 0.868962 -0.127104 -0.204958
vt 0.651188 0.025778
vt 0.663792 0.001915
vt 0.761658 0.001983
vt 0.737674 0.025737
vt 0.761658 0.183312
vt 0.737674 0.183312
vt 0.780730 0.183312
vt 0.768125 0.159449
vt 0.854611 0.159491
vt 0.878595 0.183244
vt 0.854611 0.001915
vt 0.878595 0.001915
vt 0.885062 0.025778
vt 0.897667 0.001915
vt 0.995533 0.001983
vt 0.971548 0.025737
vt 0.995533 0.183312
vt 0.971548 0.183312
vt 0.900142 0.368701
vt 0.887538 0.344838
vt 0.974024 0.344879
vt 0.998008 0.368633
vt 0.974024 0.187304
vt 0.998008 0.187304
vt 0.530353 0.227747
vt 0.530353 0.001915
vt 0.583701 0.001915
vt 0.583701 0.227747
vt 0.590771 0.227747
vt 0.590771 0.001915
vt 0.644119 0.001915
vt 0.644119 0.227747
vt 0.834050 0.187304
vt 0.881403 0.187304
vt 0.881403 0.344879
vt 0.834050 0.344879
vt 0.780562 0.187304
vt 0.827914 0.187304
vt 0.827914 0.344879
vt 0.780562 0.344879
vt 0.062604 0.959381
vt 0.062604 0.001915
vt 0.288437 0.001915
vt 0.288437 0.959381
vt 0.296479 0.959381
vt 0.296479 0.001915
vt 0.522311 0.001915
vt 0.522311 0.959381
vt 0.727073 0.187304
vt 0.774426 0.187304
vt 0.774426 0.273789
vt 0.727073 0.273789
vt 0.643465 0.279092
vt 0.643465 0.231739
vt 0.667450 0.231739
vt 0.667450 0.279092
vt 0.673585 0.187304
vt 0.720938 0.187304
vt 0.720938 0.273789
vt 0.673585 0.273789
vt 0.613346 0.279092
vt 0.613346 0.231739
vt 0.637330 0.231739
vt 0.637330 0.279092
vt 0.001992 0.959381
vt 0.001992 0.001915
vt 0.055340 0.001915
vt 0.055340 0.959381
vn 0.000000 0.000481 1.000000
vn 0.000000 0.000481 1.000000
vn 0.000000 0.000481 1.000000
vn 0.000000 0.000481 1.000000
vn 1.000000 -0.000000 0.000000
vn 1.000000 -0.000000 0.000000
vn 1.000000 -0.000000 0.000000
vn 1.000000 -0.000000 0.000000
vn -1.000000 0.000000 0.000000
vn -1.000000 0.000000 0.000000
vn -1.000000 0.000000 0.000000
vn -1.000000 0.000000 0.000000
vn 0.000000 -1.000000 0.000000
vn 0.000000 -1.000000 0.000000
vn 0.000000 -1.000000 0.000000
vn 0.000000 -1.000000 0.000000
vn 0.000000 0.000000 1.000000
vn 0.000000 0.000000 1.000000
vn 0.000000 0.000000 1.000000
vn 0.000000 0.000000 1.000000
vn 1.000000 0.000000 0.000000
vn 1.000000 0.000000 0.000000
vn 1.000000 0.000000 0.000000
vn 1.000000 0.000000 0.000000
vn -1.000000 -0.000001 0.000000
vn -1.000000 -0.000001 0.000000
vn -1.000000 -0.000001 0.000000
vn -1.000000 -0.000001 0.000000
vn 0.000000 0.000481 1.000000
vn 0.000000 0.000481 1.000000
vn 0.000000 0.000481 1.000000
vn 0.000000 0.000481 1.000000
vn 1.000000 -0.000000 0.000000
vn 1.000000 -0.000000 0.000000
vn 1.000000 -0.000000 0.000000
vn 1.000000 -0.000000 0.000000
vn -1.000000 -0.000000 0.000000
vn -1.000000 -0.000000 0.000000
vn -1.000000 -0.000000 0.000000
vn -1.000000 -0.000000 0.000000
vn 0.000000 -1.000000 0.000000
vn 0.000000 -1.000000 0.000000
vn 0.000000 -1.000000 0.000000
vn 0.000000 -1.000000 0.000000
vn 0.000000 0.000000 1.000000
vn 0.000000 0.000000 1.000000
vn 0.000000 0.000000 1.000000
vn 0.000000 0.000000 1.000000
vn 1.000000 0.000000 0.000000
vn 1.000000 0.000000 0.000000
vn 1.000000 0.000000 0.000000
vn 1.000000 0.000000 0.000000
vn -1.000000 0.000001 0.000000
vn -1.000000 0.000001 0.000000
vn -1.000000 0.000001 0.000000
vn -1.000000 0.000001 0.000000
vn 0.000000 0.000000 1.000000
vn 0.000000 0.000000 1.000000
vn 0.000000 0.000000 1.000000
vn 0.000000 0.000000 1.000000
vn 0.000000 1.000000 0.000000
vn 0.000000 1.000000 0.000000
vn 0.000000 1.000000 0.000000
vn 0.000000 1.000000 0.000000
vn 0.000000 -1.000000 0.000000
vn 0.000000 -1.000000 0.000000
vn 0.000000 -1.000000 0.000000
vn 0.000000 -1.000000 0.000000
vn 1.000000 0.000000 0.000000
vn 1.000000 0.000000 0.000000
vn 1.000000 0.000000 0.000000
vn 1.000000 0.000000 0.000000
vn -1.000000 0.000000 0.000000
vn -1.000000 0.000000 0.000000
vn -1.000000 0.000000 0.000000
vn -1.000000 0.000000 0.000000
s off
g pCube166
usemtl initialShadingGroup
f 10/49/1 11/50/2 2/51/3 1/52/4
f 11/1/5 12/2/6 4/3/7 2/4/8
f 9/7/9 10/8/10 1/9/11 3/10/12
f 1/33/13 2/34/14 6/35/15 5/36/16
f 5/53/17 6/54/18 8/55/19 7/56/20
f 2/4/21 4/3/22 8/5/23 6/6/24
f 3/10/25 1/9/26 5/11/27 7/12/28
f 22/57/29 23/58/30 14/59/31 13/60/32
f 23/13/33 24/14/34 16/15/35 14/16/36
f 21/19/37 22/20/38 13/21/39 15/22/40
f 13/37/41 14/38/42 18/39/43 17/40/44
f 17/61/45 18/62/46 20/63/47 19/64/48
f 14/16/49 16/15/50 20/17/51 18/18/52
f 15/22/53 13/21/54 17/23/55 19/24/56
f 25/65/57 26/66/58 28/67/59 27/68/60
f 27/41/61 28/42/62 30/43/63 29/44/64
f 31/45/65 32/46/66 26/47/67 25/48/68
f 26/25/69 32/26/70 30/27/71 28/28/72
f 31/29/73 25/30/74 27/31/75 29/32/76
