# This file uses centimeters as units for non-parametric coordinates.

mtllib cell column.mtl
g default
v -0.128692 -1.325786 0.128692
v 0.128692 -1.325786 0.128692
v -0.135458 1.325786 0.135458
v 0.135458 1.325786 0.135458
v -0.135458 1.325786 -0.135458
v 0.135458 1.325786 -0.135458
v -0.128692 -1.325786 -0.128692
v 0.128692 -1.325786 -0.128692
v -0.082117 1.017668 0.082117
v 0.082117 1.017668 0.082117
v 0.082117 1.017668 -0.082117
v -0.082117 1.017668 -0.082117
v -0.090561 -1.088640 0.090561
v 0.090561 -1.088640 0.090561
v 0.090561 -1.088640 -0.090561
v -0.090561 -1.088640 -0.090561
v -0.143814 1.242411 -0.143814
v 0.143814 1.242411 -0.143814
v 0.143814 1.242411 0.143814
v -0.143814 1.242411 0.143814
v -0.128374 -1.257847 0.128374
v 0.128374 -1.257847 0.128374
v 0.128374 -1.257846 -0.128374
v -0.128374 -1.257846 -0.128374
vt 0.001992 0.614641
vt 0.230869 0.614641
vt 0.220199 0.855957
vt 0.012662 0.855957
vt 0.473834 0.698573
vt 0.702711 0.698573
vt 0.692041 0.939889
vt 0.484503 0.939889
vt 0.644922 0.694581
vt 0.644922 0.369333
vt 0.652706 0.369735
vt 0.652706 0.694179
vt 0.617084 0.694581
vt 0.617084 0.369333
vt 0.624868 0.369735
vt 0.624868 0.694179
vt 0.079956 0.287378
vt 0.287494 0.287378
vt 0.365458 0.365342
vt 0.001992 0.365342
vt 0.287494 0.079840
vt 0.365458 0.001876
vt 0.079956 0.079840
vt 0.001992 0.001876
vt 0.383047 0.012435
vt 0.725394 0.012435
vt 0.725394 0.354782
vt 0.383047 0.354782
vt 0.372488 0.001876
vt 0.735953 0.001876
vt 0.735953 0.365342
vt 0.372488 0.365342
vt 0.286505 0.369333
vt 0.610949 0.369333
vt 0.563165 0.417116
vt 0.334288 0.417116
vt 0.610949 0.693777
vt 0.563165 0.645994
vt 0.286505 0.693777
vt 0.334288 0.645994
vt 0.051493 0.369333
vt 0.280370 0.369333
vt 0.269700 0.610649
vt 0.062162 0.610649
vt 0.248680 0.697768
vt 0.456217 0.697768
vt 0.466887 0.939084
vt 0.238010 0.939084
vt 0.658841 0.694581
vt 0.658841 0.369333
vt 0.666625 0.369735
vt 0.666625 0.694179
vt 0.631003 0.694179
vt 0.631003 0.369735
vt 0.638787 0.369333
vt 0.638787 0.694581
vn 0.000000 -0.042654 0.999090
vn 0.000000 -0.042654 0.999090
vn 0.000000 -0.143651 0.989628
vn 0.000000 -0.143651 0.989628
vn 0.000000 1.000000 0.000000
vn 0.000000 1.000000 0.000000
vn 0.000000 1.000000 0.000000
vn 0.000000 1.000000 0.000000
vn 0.000000 -0.143651 -0.989628
vn 0.000000 -0.143651 -0.989628
vn 0.000000 -0.042654 -0.999090
vn 0.000000 -0.042654 -0.999090
vn 0.999090 -0.042654 0.000000
vn 0.999090 -0.042654 0.000000
vn 0.989628 -0.143651 0.000000
vn 0.989628 -0.143651 0.000000
vn -0.999090 -0.042654 0.000000
vn -0.999090 -0.042654 0.000000
vn -0.989628 -0.143651 0.000000
vn -0.989628 -0.143651 0.000000
vn 0.000000 0.033386 0.999442
vn 0.000000 0.033386 0.999442
vn 0.999443 0.033386 -0.000000
vn 0.999443 0.033386 -0.000000
vn 0.000000 0.033386 -0.999443
vn 0.000000 0.033386 -0.999443
vn -0.999443 0.033386 -0.000000
vn -0.999443 0.033386 -0.000000
vn 0.000000 0.117300 0.993097
vn 0.000000 0.117300 0.993097
vn 0.993097 0.117300 -0.000000
vn 0.993097 0.117300 -0.000000
vn 0.000000 0.117300 -0.993097
vn 0.000000 0.117300 -0.993097
vn -0.993097 0.117300 -0.000000
vn -0.993097 0.117300 -0.000000
vn 0.000000 0.099722 -0.995015
vn 0.000000 0.099722 -0.995015
vn 0.995015 0.099722 0.000000
vn 0.995015 0.099722 0.000000
vn 0.000000 0.099722 0.995015
vn 0.000000 0.099722 0.995015
vn -0.995015 0.099722 0.000000
vn -0.995015 0.099722 0.000000
vn 0.000000 0.004683 0.999989
vn 0.000000 0.004683 0.999989
vn 0.999989 0.004684 -0.000000
vn 0.999989 0.004684 -0.000000
vn 0.000000 0.004684 -0.999989
vn 0.000000 0.004684 -0.999989
vn -0.999989 0.004684 -0.000000
vn -0.999989 0.004684 -0.000000
s 1
g pCube149
usemtl initialShadingGroup
f 9/17/1 10/18/2 19/19/3 20/20/4
s off
f 3/25/5 4/26/6 6/27/7 5/28/8
s 2
f 17/24/9 18/22/10 11/21/11 12/23/12
s 3
f 10/18/13 11/21/14 18/22/15 19/19/16
s 4
f 12/23/17 9/17/18 20/20/19 17/24/20
s 1
f 13/41/21 14/42/22 10/43/2 9/44/1
s 3
f 14/1/23 15/2/24 11/3/14 10/4/13
s 2
f 12/45/12 11/46/11 15/47/25 16/48/26
s 4
f 16/5/27 13/6/28 9/7/18 12/8/17
s 1
f 21/33/29 22/34/30 14/35/22 13/36/21
s 3
f 22/34/31 23/37/32 15/38/24 14/35/23
s 2
f 16/40/26 15/38/25 23/37/33 24/39/34
s 4
f 24/39/35 21/33/36 13/36/28 16/40/27
s 2
f 5/28/37 6/27/38 18/31/10 17/32/9
s 3
f 19/30/16 18/31/15 6/27/39 4/26/40
s 1
f 20/29/4 19/30/3 4/26/41 3/25/42
s 4
f 17/32/20 20/29/19 3/25/43 5/28/44
s 1
f 1/49/45 2/50/46 22/51/30 21/52/29
s 3
f 2/9/47 8/10/48 23/11/32 22/12/31
s 2
f 24/53/34 23/54/33 8/55/49 7/56/50
s 4
f 7/13/51 1/14/52 21/15/36 24/16/35
