# This file uses centimeters as units for non-parametric coordinates.

mtllib pared.mtl
g default
v -0.286898 -1.074916 1.588464
v 0.286898 -1.074916 1.588464
v -0.286898 -1.074916 -1.588464
v 0.286898 -1.074916 -1.588464
v 0.286898 -1.074916 1.206718
v -0.286898 -1.074916 1.206718
v -0.286898 -1.074916 1.028779
v 0.286898 -1.074916 1.028779
v -0.286898 -1.074916 -0.438144
v 0.286898 -1.074916 -0.438144
v -0.286898 -1.074916 -0.941831
v 0.286898 -1.074916 -0.941831
v -0.286898 0.813918 1.588464
v 0.286898 0.813918 1.588464
v 0.286898 0.813918 1.206718
v 0.286898 0.813918 1.028779
v 0.286898 0.813918 -0.438144
v 0.286898 0.813918 -0.941831
v 0.286898 0.813918 -1.588464
v -0.286898 0.813918 -1.588464
v -0.286898 0.813918 -0.941831
v -0.286898 0.813918 -0.438144
v -0.286898 0.813918 1.028779
v -0.286898 0.813918 1.206718
v -0.286898 0.133147 1.588464
v 0.286898 0.133147 1.588464
v 0.286898 0.133147 1.206718
v 0.286898 0.133147 1.028779
v 0.286898 0.133147 -0.438144
v 0.286898 0.133147 -0.941831
v 0.286898 0.133147 -1.588464
v -0.286898 0.133147 -1.588464
v -0.286898 0.133147 -0.941831
v -0.286898 0.133147 -0.438144
v -0.286898 0.133147 1.028779
v -0.286898 0.133147 1.206718
v 0.286898 0.813918 0.260005
v 0.286898 0.133147 0.260005
v 0.286898 -1.074916 0.260005
v -0.286898 -1.074916 0.260005
v -0.286898 0.133147 0.260005
v -0.286898 0.813918 0.260005
v 0.330150 0.813918 0.260005
v 0.330150 0.813918 -0.438144
v 0.330150 0.133147 0.260005
v 0.330150 0.133147 -0.438144
v 0.328380 0.133147 -0.438144
v 0.328380 0.133147 -0.941831
v 0.328380 -1.074916 -0.438144
v 0.328380 -1.074916 -0.941831
v 0.324315 0.133147 1.206718
v 0.324315 0.133147 1.028779
v 0.324315 -1.074916 1.206718
v 0.324315 -1.074916 1.028779
v 0.156412 1.074916 0.898293
v 0.286898 0.944430 1.028779
v 0.156412 1.074916 0.390491
v 0.286898 0.944430 0.260005
v -0.156412 1.074916 0.898293
v -0.286898 0.944430 1.028779
v -0.286898 0.944430 0.260005
v -0.156412 1.074916 0.390491
v -0.191471 1.074916 1.493037
v -0.286898 0.979489 1.588464
v 0.191471 1.074916 1.493037
v 0.286898 0.979489 1.588464
v -0.191471 1.074916 -1.493037
v -0.286898 0.979489 -1.588464
v 0.286898 0.979489 -1.588464
v 0.191471 1.074916 -1.493037
v -0.191471 1.074916 1.302145
v -0.286898 0.979489 1.206718
v 0.191471 1.074916 1.302145
v 0.286898 0.979489 1.206718
v 0.191471 1.074916 -0.533571
v 0.286898 0.979489 -0.438144
v 0.191471 1.074916 -0.941831
v 0.286898 0.979489 -0.941831
v -0.191471 1.074916 -0.533571
v -0.286898 0.979489 -0.438144
v -0.191471 1.074916 -0.941831
v -0.286898 0.979489 -0.941831
v -0.318542 0.133147 0.260005
v -0.318542 0.813918 0.260005
v -0.318542 0.813918 -0.438144
v -0.318542 0.133147 -0.438144
v -0.329520 -1.074916 -1.588464
v -0.329520 -1.074916 -0.941831
v -0.329520 0.133147 -0.941831
v -0.329520 0.133147 -1.588464
v -0.345911 0.133147 0.260005
v -0.345911 0.133147 1.028779
v -0.345911 -1.074916 0.260005
v -0.345911 -1.074916 1.028779
vt 0.522647 0.558506
vt 0.565161 0.558506
vt 0.565161 0.670544
vt 0.522647 0.670544
vt 0.522647 0.359689
vt 0.565161 0.359689
vt 0.584977 0.670544
vt 0.584977 0.558506
vt 0.565161 0.697792
vt 0.522647 0.697792
vt 0.670594 0.558506
vt 0.670594 0.670544
vt 0.584977 0.692023
vt 0.670594 0.692023
vt 0.670594 0.359689
vt 0.584977 0.359689
vt 0.748346 0.558506
vt 0.748346 0.359689
vt 0.586666 0.840102
vt 0.508915 0.840102
vt 0.508915 0.728064
vt 0.586666 0.728064
vt 0.444497 0.696824
vt 0.388402 0.696824
vt 0.388402 0.584787
vt 0.444497 0.584787
vt 0.388402 0.724073
vt 0.444497 0.724073
vt 0.516511 0.696824
vt 0.516511 0.584787
vt 0.516511 0.724073
vt 0.444497 0.385970
vt 0.516511 0.385970
vt 0.176407 0.584787
vt 0.248421 0.584787
vt 0.248421 0.696824
vt 0.176407 0.696824
vt 0.304516 0.696824
vt 0.304516 0.584787
vt 0.248421 0.724073
vt 0.176407 0.724073
vt 0.304516 0.724073
vt 0.248421 0.385970
vt 0.304516 0.385970
vt 0.382267 0.385970
vt 0.382267 0.584787
vt 0.672420 0.701784
vt 0.672420 0.813821
vt 0.594668 0.813821
vt 0.594668 0.701784
vt 0.127757 0.716725
vt 0.107941 0.716725
vt 0.107941 0.604687
vt 0.127757 0.604687
vt 0.022324 0.716725
vt 0.022324 0.604687
vt 0.107941 0.405870
vt 0.127757 0.405870
vt 0.170272 0.716725
vt 0.170272 0.604687
vt 0.022324 0.738204
vt 0.107941 0.738204
vt 0.170272 0.405870
vt 0.127757 0.743974
vt 0.170272 0.743974
vt 0.021809 0.946782
vt 0.001992 0.946782
vt 0.001992 0.747965
vt 0.021809 0.747965
vt 0.085567 0.946782
vt 0.029472 0.946782
vt 0.029472 0.747965
vt 0.085567 0.747965
vt 0.091839 0.747965
vt 0.163853 0.747965
vt 0.163853 0.946782
vt 0.091839 0.946782
vt 0.257363 0.946782
vt 0.171746 0.946782
vt 0.171746 0.747965
vt 0.257363 0.747965
vt 0.079744 0.382367
vt 0.001992 0.382367
vt 0.001992 0.028559
vt 0.079744 0.028559
vt 0.079744 0.401879
vt 0.001992 0.401879
vt 0.001992 0.001890
vt 0.079744 0.001890
vt 0.775921 0.001890
vt 0.795738 0.001890
vt 0.795738 0.355698
vt 0.775921 0.355698
vt 0.887011 0.795240
vt 0.887011 0.717488
vt 0.913681 0.717488
vt 0.913681 0.795240
vt 0.940014 0.855326
vt 0.940014 0.799231
vt 0.965592 0.799231
vt 0.965592 0.855326
vt 0.908300 0.855326
vt 0.908300 0.799231
vt 0.933879 0.799231
vt 0.933879 0.855326
vt 0.902165 0.830168
vt 0.882349 0.830168
vt 0.882349 0.807097
vt 0.902165 0.807097
vt 0.876213 0.830168
vt 0.856397 0.830168
vt 0.856397 0.807097
vt 0.876213 0.807097
vt 0.817738 0.082348
vt 0.803206 0.001890
vt 0.888823 0.001890
vt 0.874291 0.082348
vt 0.817738 0.275239
vt 0.803206 0.355698
vt 0.888823 0.355698
vt 0.874291 0.275239
vt 0.955494 0.355698
vt 0.966121 0.296857
vt 0.987381 0.296857
vt 0.998008 0.355698
vt 0.955494 0.001890
vt 0.966121 0.060731
vt 0.987381 0.060731
vt 0.998008 0.001890
vt 0.938731 0.654656
vt 0.949358 0.713497
vt 0.877344 0.713497
vt 0.877344 0.654656
vt 0.938731 0.418530
vt 0.949358 0.359689
vt 0.821250 0.713497
vt 0.831877 0.654656
vt 0.877344 0.418530
vt 0.877344 0.359689
vt 0.821250 0.359689
vt 0.831877 0.418530
vt 0.939655 0.717488
vt 0.939655 0.795240
vt 0.920143 0.795240
vt 0.920143 0.717488
vt 0.973710 0.717488
vt 0.973710 0.789503
vt 0.947429 0.789503
vt 0.947429 0.717488
vt 0.998008 0.793494
vt 0.998008 0.865508
vt 0.971727 0.865508
vt 0.971727 0.793494
vt 0.837645 0.717488
vt 0.837645 0.803105
vt 0.801257 0.803105
vt 0.801257 0.717488
vt 0.880522 0.717488
vt 0.880522 0.803105
vt 0.844134 0.803105
vt 0.844134 0.717488
vt 0.629773 0.355698
vt 0.629773 0.001890
vt 0.741811 0.001890
vt 0.741811 0.355698
vt 0.430956 0.355698
vt 0.430956 0.001890
vt 0.769060 0.001890
vt 0.769060 0.355698
vt 0.113241 0.355698
vt 0.113241 0.001890
vt 0.225279 0.001890
vt 0.225279 0.355698
vt 0.085992 0.355698
vt 0.085992 0.001890
vt 0.424095 0.001890
vt 0.424095 0.355698
vt 0.424095 0.381978
vt 0.225279 0.381978
vt 0.680422 0.813821
vt 0.680422 0.701784
vt 0.707092 0.701784
vt 0.707092 0.813821
vt 0.713555 0.813822
vt 0.713555 0.701784
vt 0.740224 0.701784
vt 0.740224 0.813822
vt 0.265296 0.926881
vt 0.265296 0.728064
vt 0.290874 0.728064
vt 0.290874 0.926881
vt 0.298428 0.926881
vt 0.298428 0.728064
vt 0.324006 0.728064
vt 0.324006 0.926881
vt 0.331560 0.926881
vt 0.331560 0.728064
vt 0.354631 0.728064
vt 0.354631 0.926881
vt 0.360794 0.926881
vt 0.360794 0.728064
vt 0.383865 0.728064
vt 0.383865 0.926881
vt 0.896756 0.355698
vt 0.896756 0.001890
vt 0.918235 0.001890
vt 0.918235 0.355698
vt 0.947469 0.001890
vt 0.947469 0.355698
vt 0.925990 0.355698
vt 0.925990 0.001890
vt 0.815114 0.359689
vt 0.815114 0.713497
vt 0.787865 0.713497
vt 0.787865 0.359689
vt 0.754481 0.713497
vt 0.754481 0.359689
vt 0.781730 0.359689
vt 0.781730 0.713497
vt 0.766199 0.717488
vt 0.766199 0.829526
vt 0.746687 0.829526
vt 0.746687 0.717488
vt 0.793484 0.717488
vt 0.793484 0.829526
vt 0.773972 0.829526
vt 0.773972 0.717488
vt 0.416309 0.728064
vt 0.416309 0.926881
vt 0.390028 0.926881
vt 0.390028 0.728064
vt 0.459549 0.728064
vt 0.459549 0.926881
vt 0.423161 0.926881
vt 0.423161 0.728064
vt 0.502425 0.728064
vt 0.502425 0.926881
vt 0.466038 0.926881
vt 0.466038 0.728064
vn 0.000000 0.000000 1.000000
vn 0.000000 0.000000 1.000000
vn 0.000000 0.000000 1.000000
vn 0.000000 0.000000 1.000000
vn 1.000000 0.000000 0.000000
vn 1.000000 0.000000 0.000000
vn 1.000000 0.000000 0.000000
vn 1.000000 0.000000 0.000000
vn 1.000000 0.000000 0.000000
vn 1.000000 0.000000 0.000000
vn 1.000000 0.000000 0.000000
vn 1.000000 0.000000 0.000000
vn 1.000000 0.000000 0.000000
vn 1.000000 0.000000 0.000000
vn 1.000000 0.000000 0.000000
vn 1.000000 0.000000 0.000000
vn 1.000000 0.000000 0.000000
vn 1.000000 0.000000 0.000000
vn 1.000000 0.000000 0.000000
vn 1.000000 0.000000 0.000000
vn 0.000000 0.000000 -1.000000
vn 0.000000 0.000000 -1.000000
vn 0.000000 0.000000 -1.000000
vn 0.000000 0.000000 -1.000000
vn -1.000000 0.000000 0.000000
vn -1.000000 0.000000 0.000000
vn -1.000000 0.000000 0.000000
vn -1.000000 0.000000 0.000000
vn -1.000000 0.000000 0.000000
vn -1.000000 0.000000 0.000000
vn -1.000000 0.000000 0.000000
vn -1.000000 0.000000 0.000000
vn -1.000000 0.000000 0.000000
vn -1.000000 0.000000 0.000000
vn -1.000000 0.000000 0.000000
vn -1.000000 0.000000 0.000000
vn -1.000000 0.000000 0.000000
vn -1.000000 0.000000 0.000000
vn -1.000000 0.000000 0.000000
vn -1.000000 0.000000 0.000000
vn 0.000000 0.000000 1.000000
vn 0.000000 0.000000 1.000000
vn 1.000000 0.000000 0.000000
vn 1.000000 0.000000 0.000000
vn 1.000000 0.000000 0.000000
vn 1.000000 0.000000 0.000000
vn 1.000000 0.000000 0.000000
vn 1.000000 0.000000 0.000000
vn 1.000000 0.000000 0.000000
vn 1.000000 0.000000 0.000000
vn 1.000000 0.000000 0.000000
vn 1.000000 0.000000 0.000000
vn 1.000000 0.000000 0.000000
vn 1.000000 0.000000 0.000000
vn 1.000000 0.000000 0.000000
vn 1.000000 0.000000 0.000000
vn 1.000000 0.000000 0.000000
vn 1.000000 0.000000 0.000000
vn 0.000000 0.000000 -1.000000
vn 0.000000 0.000000 -1.000000
vn -1.000000 0.000000 0.000000
vn -1.000000 0.000000 0.000000
vn -1.000000 0.000000 0.000000
vn -1.000000 0.000000 0.000000
vn -1.000000 0.000000 0.000000
vn -1.000000 0.000000 0.000000
vn -1.000000 0.000000 0.000000
vn -1.000000 0.000000 0.000000
vn -1.000000 0.000000 0.000000
vn -1.000000 0.000000 0.000000
vn -1.000000 0.000000 0.000000
vn 1.000000 0.000000 0.000000
vn 1.000000 0.000000 0.000000
vn -1.000000 0.000000 0.000000
vn -1.000000 0.000000 0.000000
vn -1.000000 0.000000 0.000000
vn -1.000000 0.000000 0.000000
vn -1.000000 0.000000 0.000000
vn -1.000000 0.000000 0.000000
vn 0.000000 1.000000 0.000000
vn 0.000000 1.000000 0.000000
vn 0.000000 1.000000 0.000000
vn 0.000000 1.000000 0.000000
vn 0.000000 1.000000 0.000000
vn 0.000000 1.000000 0.000000
vn 0.000000 1.000000 0.000000
vn 0.000000 1.000000 0.000000
vn 0.000000 1.000000 0.000000
vn 0.000000 1.000000 0.000000
vn 0.000000 1.000000 0.000000
vn 0.000000 1.000000 0.000000
vn 0.000000 0.000000 1.000000
vn 0.000000 0.000000 1.000000
vn 0.000000 0.000000 1.000000
vn 0.000000 0.000000 1.000000
vn 0.000000 -1.000000 0.000000
vn 0.000000 -1.000000 0.000000
vn 0.000000 -1.000000 0.000000
vn 0.000000 -1.000000 0.000000
vn 0.000000 0.000000 -1.000000
vn 0.000000 0.000000 -1.000000
vn 0.000000 0.000000 -1.000000
vn 0.000000 0.000000 -1.000000
vn 0.000000 1.000000 0.000000
vn 0.000000 1.000000 0.000000
vn 0.000000 1.000000 0.000000
vn 0.000000 1.000000 0.000000
vn 0.000000 0.000000 1.000000
vn 0.000000 0.000000 1.000000
vn 0.000000 0.000000 1.000000
vn 0.000000 0.000000 1.000000
vn 0.000000 -1.000000 0.000000
vn 0.000000 -1.000000 0.000000
vn 0.000000 -1.000000 0.000000
vn 0.000000 -1.000000 0.000000
vn 0.000000 0.000000 -1.000000
vn 0.000000 0.000000 -1.000000
vn 0.000000 0.000000 -1.000000
vn 0.000000 0.000000 -1.000000
vn 0.000000 1.000000 0.000000
vn 0.000000 1.000000 0.000000
vn 0.000000 1.000000 0.000000
vn 0.000000 1.000000 0.000000
vn 0.000000 0.000000 1.000000
vn 0.000000 0.000000 1.000000
vn 0.000000 0.000000 1.000000
vn 0.000000 0.000000 1.000000
vn 0.000000 -1.000000 0.000000
vn 0.000000 -1.000000 0.000000
vn 0.000000 -1.000000 0.000000
vn 0.000000 -1.000000 0.000000
vn 0.000000 0.000000 -1.000000
vn 0.000000 0.000000 -1.000000
vn 0.000000 0.000000 -1.000000
vn 0.000000 0.000000 -1.000000
vn 0.707107 0.707107 0.000000
vn 0.707107 0.707107 0.000000
vn 0.707107 0.707107 0.000000
vn 0.707107 0.707107 0.000000
vn 0.000000 0.707107 0.707107
vn 0.000000 0.707106 0.707107
vn 0.000000 0.707106 0.707107
vn 0.000000 0.707107 0.707107
vn 0.000000 0.707107 -0.707107
vn 0.000000 0.707107 -0.707107
vn 0.000000 0.707107 -0.707107
vn 0.000000 0.707107 -0.707107
vn -0.707107 0.707107 0.000000
vn -0.707107 0.707107 0.000000
vn -0.707107 0.707107 0.000000
vn -0.707107 0.707107 0.000000
vn 1.000000 0.000000 0.000000
vn 1.000000 0.000000 0.000000
vn -1.000000 0.000000 0.000000
vn -1.000000 0.000000 0.000000
vn 0.000000 1.000000 0.000000
vn 0.000000 1.000000 0.000000
vn 0.000000 1.000000 0.000000
vn 0.000000 1.000000 0.000000
vn 0.000000 -0.000000 -1.000000
vn 0.000000 -0.000000 -1.000000
vn 0.000000 -0.000000 -1.000000
vn 0.000000 -0.000000 -1.000000
vn 0.000000 0.000000 1.000000
vn 0.000000 0.000000 1.000000
vn 0.000000 0.000000 1.000000
vn 0.000000 0.000000 1.000000
vn 0.000000 0.707107 0.707107
vn 0.000000 0.707107 0.707107
vn 0.000000 0.707107 0.707107
vn 0.000000 0.707107 0.707107
vn -0.707107 0.707107 0.000000
vn -0.707107 0.707107 0.000000
vn -0.707107 0.707107 0.000000
vn -0.707107 0.707107 0.000000
vn 0.707107 0.707107 0.000000
vn 0.707107 0.707107 0.000000
vn 0.707107 0.707107 0.000000
vn 0.707107 0.707107 0.000000
vn -0.707107 0.707107 0.000000
vn -0.707107 0.707107 0.000000
vn -0.707107 0.707107 0.000000
vn -0.707107 0.707107 0.000000
vn 0.000000 0.707107 -0.707107
vn 0.000000 0.707107 -0.707107
vn 0.000000 0.707107 -0.707107
vn 0.000000 0.707107 -0.707107
vn 0.707107 0.707107 0.000000
vn 0.707107 0.707107 0.000000
vn 0.707107 0.707107 0.000000
vn 0.707107 0.707107 0.000000
vn 0.000000 0.707106 -0.707107
vn 0.000000 0.707106 -0.707107
vn 0.000000 0.707106 -0.707107
vn 0.000000 0.707106 -0.707107
vn 0.707107 0.707107 0.000000
vn 0.707107 0.707107 0.000000
vn 0.000000 0.707107 0.707107
vn 0.000000 0.707107 0.707107
vn 0.000000 0.707107 0.707107
vn 0.000000 0.707107 0.707107
vn -0.707107 0.707107 0.000000
vn -0.707107 0.707107 0.000000
vn 0.000000 0.000000 1.000000
vn 0.000000 0.000000 1.000000
vn 0.000000 0.000000 -1.000000
vn 0.000000 0.000000 -1.000000
vn 0.000000 1.000000 0.000000
vn 0.000000 1.000000 0.000000
vn 0.000000 1.000000 0.000000
vn 0.000000 1.000000 0.000000
vn 1.000000 0.000000 0.000000
vn 1.000000 0.000000 0.000000
vn -1.000000 0.000000 0.000000
vn -1.000000 0.000000 0.000000
vn 1.000000 0.000000 0.000000
vn 1.000000 0.000000 0.000000
vn 0.000000 1.000000 0.000000
vn 0.000000 1.000000 0.000000
vn 0.000000 1.000000 0.000000
vn 0.000000 1.000000 0.000000
vn -1.000000 0.000000 0.000000
vn -1.000000 0.000000 0.000000
vn 1.000000 0.000000 0.000000
vn 0.000000 1.000000 0.000000
vn 0.000000 1.000000 0.000000
vn -1.000000 0.000000 0.000000
vn 0.000000 0.000000 1.000000
vn 0.000000 0.000000 1.000000
vn 0.000000 0.000000 1.000000
vn 0.000000 0.000000 1.000000
vn 0.000000 0.000000 -1.000000
vn 0.000000 0.000000 -1.000000
vn 0.000000 0.000000 -1.000000
vn 0.000000 0.000000 -1.000000
vn 0.000000 0.000000 1.000000
vn 0.000000 0.000000 1.000000
vn 0.000000 0.000000 1.000000
vn 0.000000 0.000000 1.000000
vn 0.000000 1.000000 0.000000
vn 0.000000 1.000000 0.000000
vn 0.000000 1.000000 0.000000
vn 0.000000 1.000000 0.000000
vn 0.000000 0.000000 -1.000000
vn 0.000000 0.000000 -1.000000
vn 0.000000 0.000000 -1.000000
vn 0.000000 0.000000 -1.000000
vn 0.000000 -1.000000 0.000000
vn 0.000000 -1.000000 0.000000
vn 0.000000 -1.000000 0.000000
vn 0.000000 -1.000000 0.000000
vn 0.000000 -1.000000 0.000000
vn 0.000000 -1.000000 0.000000
vn 0.000000 -1.000000 0.000000
vn 0.000000 -1.000000 0.000000
vn 0.000000 0.000000 1.000000
vn 0.000000 0.000000 1.000000
vn 0.000000 0.000000 1.000000
vn 0.000000 0.000000 1.000000
vn 0.000000 1.000000 0.000000
vn 0.000000 1.000000 0.000000
vn 0.000000 1.000000 0.000000
vn 0.000000 1.000000 0.000000
vn 0.000000 0.000000 -1.000000
vn 0.000000 0.000000 -1.000000
vn 0.000000 0.000000 -1.000000
vn 0.000000 0.000000 -1.000000
vn 0.000000 1.000000 0.000000
vn 0.000000 1.000000 0.000000
vn 0.000000 1.000000 0.000000
vn 0.000000 1.000000 0.000000
vn 0.000000 0.000000 -1.000000
vn 0.000000 0.000000 -1.000000
vn 0.000000 0.000000 -1.000000
vn 0.000000 0.000000 -1.000000
vn 0.000000 -1.000000 0.000000
vn 0.000000 -1.000000 0.000000
vn 0.000000 -1.000000 0.000000
vn 0.000000 -1.000000 0.000000
vn 0.000000 0.000000 1.000000
vn 0.000000 0.000000 1.000000
vn 0.000000 0.000000 1.000000
vn 0.000000 0.000000 1.000000
s 1
g pCube151
usemtl initialShadingGroup
f 25/162/1 26/163/2 14/164/3 13/165/4
s 2
f 26/1/5 27/2/6 15/3/7 14/4/8
f 16/7/9 15/3/7 27/2/6 28/8/10
s off
f 44/19/11 43/20/12 45/21/13 46/22/14
s 3
f 18/23/15 17/24/16 29/25/17 30/26/18
f 19/29/19 18/23/15 30/26/18 31/30/20
s 4
f 20/170/21 19/171/22 31/172/23 32/173/24
s 5
f 32/34/25 33/35/26 21/36/27 20/37/28
f 22/38/29 21/36/27 33/35/26 34/39/30
s off
f 83/47/31 84/48/32 85/49/33 86/50/34
s 6
f 24/51/35 23/52/36 35/53/37 36/54/38
f 13/59/39 24/51/35 36/54/38 25/60/40
s 1
f 1/166/41 2/167/42 26/163/2 25/162/1
s 2
f 2/5/43 5/6/44 27/2/6 26/1/5
s off
f 52/66/45 51/67/46 53/68/47 54/69/48
s 2
f 29/17/49 38/11/50 39/15/51 10/18/52
s off
f 48/70/53 47/71/54 49/72/55 50/73/56
s 3
f 31/30/20 30/26/18 12/32/57 4/33/58
s 4
f 32/173/24 31/172/23 4/176/59 3/177/60
s off
f 87/74/61 88/75/62 89/76/63 90/77/64
s 5
f 34/39/30 33/35/26 11/43/65 9/44/66
f 40/45/67 41/46/68 34/39/30 9/44/66
s 6
f 36/54/38 35/53/37 7/57/69 6/58/70
f 25/60/40 36/54/38 6/58/70 1/63/71
s 2
f 38/11/50 37/12/72 16/7/9 28/8/10
f 39/15/51 38/11/50 28/8/10 8/16/73
s off
f 92/78/74 91/79/75 93/80/76 94/81/77
s 6
f 23/52/36 42/55/78 41/56/79 35/53/37
s off
f 22/82/80 42/83/81 37/84/82 17/85/83
f 15/90/84 16/91/85 23/92/86 24/93/87
f 17/85/88 37/84/89 43/88/90 44/89/91
f 37/180/92 38/181/93 45/182/94 43/183/95
f 38/94/96 29/95/97 46/96/98 45/97/99
f 29/184/100 17/185/101 44/186/102 46/187/103
f 30/98/104 29/99/105 47/100/106 48/101/107
f 29/188/108 10/189/109 49/190/110 47/191/111
f 10/102/112 12/103/113 50/104/114 49/105/115
f 12/192/116 30/193/117 48/194/118 50/195/119
f 28/106/120 27/107/121 51/108/122 52/109/123
f 27/196/124 5/197/125 53/198/126 51/199/127
f 5/110/128 8/111/129 54/112/130 53/113/131
f 8/200/132 28/201/133 52/202/134 54/203/135
f 55/114/136 56/115/137 58/116/138 57/117/139
f 56/115/140 55/114/141 59/118/142 60/119/143
f 57/117/144 58/116/145 61/120/146 62/121/147
f 60/119/148 59/118/149 62/121/150 61/120/151
s 2
f 56/13/152 16/7/9 37/12/72 58/14/153
s 6
f 61/61/154 42/55/78 23/52/36 60/62/155
s off
f 59/118/156 55/114/157 57/117/158 62/121/159
f 61/204/160 58/205/161 37/206/162 42/207/163
f 56/208/164 60/209/165 23/210/166 16/211/167
f 63/123/168 64/122/169 66/126/170 65/127/171
f 64/122/172 63/123/173 71/124/174 72/125/175
f 65/127/176 66/126/177 74/129/178 73/128/179
s 8
f 67/130/180 68/131/181 82/132/182 81/133/183
s off
f 68/131/184 67/130/185 70/134/186 69/135/187
s 9
f 69/135/188 70/134/189 77/138/190 78/139/191
s off
f 72/125/192 71/124/193 73/128/194 74/129/195
s 9
f 75/141/196 76/140/197 78/139/191 77/138/190
s off
f 76/140/198 75/141/199 79/137/200 80/136/201
s 8
f 80/136/202 79/137/203 81/133/183 82/132/182
s 1
f 13/165/4 14/164/3 66/168/204 64/169/205
s 4
f 68/174/206 69/175/207 19/171/22 20/170/21
s off
f 63/123/208 65/127/209 73/128/210 71/124/211
s 2
f 14/4/8 15/3/7 74/9/212 66/10/213
s 6
f 72/64/214 24/51/35 13/59/39 64/65/215
s 3
f 76/27/216 17/24/16 18/23/15 78/28/217
s 10
f 79/137/218 75/141/219 77/138/220 81/133/221
s 5
f 82/40/222 21/36/27 22/38/29 80/42/223
s 3
f 78/28/217 18/23/15 19/29/19 69/31/224
s 10
f 81/133/221 77/138/220 70/134/225 67/130/226
s 5
f 20/37/28 21/36/27 82/40/222 68/41/227
s off
f 76/212/228 80/213/229 22/214/230 17/215/231
f 72/216/232 74/217/233 15/218/234 24/219/235
f 41/220/236 42/221/237 84/222/238 83/223/239
f 42/83/240 22/82/241 85/86/242 84/87/243
f 22/224/244 34/225/245 86/226/246 85/227/247
f 34/142/248 41/143/249 83/144/250 86/145/251
f 3/146/252 11/147/253 88/148/254 87/149/255
f 11/228/256 33/229/257 89/230/258 88/231/259
f 33/150/260 32/151/261 90/152/262 89/153/263
f 32/173/264 3/177/265 87/178/266 90/179/267
f 35/154/268 41/155/269 91/156/270 92/157/271
f 41/232/272 40/233/273 93/234/274 91/235/275
f 40/158/276 7/159/277 94/160/278 93/161/279
f 7/236/280 35/237/281 92/238/282 94/239/283
